{"title":"Titli.2015.DVDRip.x264.AAC.Hindi.ESubs-ViZNU [P2PDL]","uid":12934241,"size":507625800,"categoryP":"video","categoryS":"movies","magnet":"?xt=urn:btih:f0734eecf12b35d363246f7e2277840351316429&amp;dn=Titli.2015.DVDRip.x264.AAC.Hindi.ESubs-ViZNU+%5BP2PDL%5D&amp;tr=udp%3A%2F%2Ftracker.leechers-paradise.org%3A6969&amp;tr=udp%3A%2F%2Fzer0day.ch%3A1337&amp;tr=udp%3A%2F%2Fopen.demonii.com%3A1337&amp;tr=udp%3A%2F%2Ftracker.coppersurfer.tk%3A6969&amp;tr=udp%3A%2F%2Fexodus.desync.com%3A6969","seeders":1,"leechers":1,"uploader":"VYTOP2PDL","files":7,"time":1449560706,"description":"Titli.2015.DVDRip.x264.AAC.Hindi.ESubs-ViZNU\r\n\r\n\r\nGenre: Crime, Drama, Thriller     \nhttp://www.imdb.com/title/tt3019620/\r\n\r\n\r\nGeneral\r\nFormat                         : MPEG-4\r\nFile size                      : 476 MiB\r\nDuration                       : 1h 53mn\r\nOverall bit rate               : 589 Kbps\r\n\r\nVideo\r\nFormat                         : AVC\r\nBit rate                       : 554 Kbps\r\nWidth                          : 656 pixels\r\nHeight                         : 352 pixels\r\nDisplay aspect ratio           : 1.85:1\r\nFrame rate mode                : Constant\r\nFrame rate                     : 23.976 fps\r\nBit depth                      : 8 bits\r\nStream size                    : 448 MiB (94%)\r\nWriting library                : x264\r\n\r\nAudio\r\nFormat                         : AAC\r\nBit rate                       : 31.9 Kbps\r\nChannel(s)                     : 2 channels \r\nChannel positions              : Front: L R \r\nSampling rate                  : 48.0 KHz\r\nStream size                    : 25.8 MiB (5%)\r\nLanguage                       : Hindi\r\n\r\nSubtitle                       : Yes (English)\r\n\r\nScreen Shots:\r\n \nhttp://ititli.com/Ci \nhttp://ititli.com/Cp \nhttp://ititli.com/CD \nhttp://ititli.com/Ca \nhttp://ititli.com/Cb \nhttp://ititli.com/Cz \nhttp://ititli.com/CI \nhttp://ititli.com/CO \nhttp://ititli.com/F9\r\n\r\n\r\n----------------------------------------------------------------------------------------------------\r\n\r\n\r\nEncoder Notes: Looking For Early Access To Anything You Can Provide WEBDL, DVDScr, DVDR, BluRay,\r\nDirect Audio, Music Releases and Seedboxes. If You Got anything to offer please contact us.\r\n\r\nSupport us by donating BC - 1FgwdzPsd1y25Gea8wP1qni35uGCtmkRCD\r\n\r\nSend some love!\r\nFInd us and join us!","torrent":{"xt":"urn:btih:f0734eecf12b35d363246f7e2277840351316429","amp;dn":"Titli.2015.DVDRip.x264.AAC.Hindi.ESubs-ViZNU+%5BP2PDL%5D","amp;tr":["udp%3A%2F%2Ftracker.leechers-paradise.org%3A6969","udp%3A%2F%2Fzer0day.ch%3A1337","udp%3A%2F%2Fopen.demonii.com%3A1337","udp%3A%2F%2Ftracker.coppersurfer.tk%3A6969","udp%3A%2F%2Fexodus.desync.com%3A6969"],"infoHash":"f0734eecf12b35d363246f7e2277840351316429","infoHashBuffer":{"type":"Buffer","data":[240,115,78,236,241,43,53,211,99,36,111,126,34,119,132,3,81,49,100,41]},"announce":[],"urlList":[]}}